<svg viewBox="0 0 400 300" xmlns="http://www.w3.org/2000/svg">
  <!-- Background -->
  <rect width="400" height="300" fill="#f8fafc"/>
  
  <!-- Search Engine Interface -->
  <rect x="50" y="60" width="300" height="180" rx="12" fill="#ffffff" stroke="#e2e8f0" stroke-width="2"/>
  
  <!-- Browser Bar -->
  <rect x="50" y="60" width="300" height="40" rx="12" fill="#1e293b"/>
  <circle cx="70" cy="80" r="5" fill="#ef4444"/>
  <circle cx="85" cy="80" r="5" fill="#f59e0b"/>
  <circle cx="100" cy="80" r="5" fill="#10b981"/>
  
  <!-- Search Bar -->
  <rect x="70" y="120" width="260" height="35" rx="18" fill="#f1f5f9" stroke="#cbd5e1" stroke-width="1"/>
  <text x="85" y="142" fill="#64748b" font-family="Arial, sans-serif" font-size="12">Search Engine Optimization...</text>
  
  <!-- Search Results -->
  <rect x="70" y="170" width="260" height="20" rx="4" fill="#3b82f6" opacity="0.1"/>
  <text x="85" y="184" fill="#1e40af" font-family="Arial, sans-serif" font-size="10" font-weight="bold">Your Website - Top Result</text>
  
  <rect x="70" y="195" width="260" height="15" rx="3" fill="#64748b" opacity="0.1"/>
  <text x="85" y="206" fill="#64748b" font-family="Arial, sans-serif" font-size="9">Competitor Result</text>
  
  <rect x="70" y="215" width="260" height="15" rx="3" fill="#64748b" opacity="0.1"/>
  <text x="85" y="226" fill="#64748b" font-family="Arial, sans-serif" font-size="9">Another Competitor</text>
  
  <!-- SEO Graph -->
  <g transform="translate(250, 30)">
    <rect x="0" y="0" width="100" height="60" rx="6" fill="#10b981" opacity="0.1"/>
    <path d="M10 50 L30 40 L50 25 L70 15 L90 10" stroke="#10b981" stroke-width="3" fill="none"/>
    <circle cx="10" cy="50" r="3" fill="#10b981"/>
    <circle cx="30" cy="40" r="3" fill="#10b981"/>
    <circle cx="50" cy="25" r="3" fill="#10b981"/>
    <circle cx="70" cy="15" r="3" fill="#10b981"/>
    <circle cx="90" cy="10" r="3" fill="#10b981"/>
    <text x="5" y="73" fill="#10b981" font-family="Arial, sans-serif" font-size="8">Rankings ↗</text>
  </g>
  
  <!-- Keywords -->
  <g transform="translate(20, 20)">
    <rect x="0" y="0" width="60" height="20" rx="10" fill="#3b82f6" opacity="0.2"/>
    <text x="30" y="13" fill="#1e40af" font-family="Arial, sans-serif" font-size="8" text-anchor="middle">Keywords</text>
  </g>
  
  <!-- Analytics Icon -->
  <g transform="translate(20, 250)">
    <rect x="0" y="0" width="40" height="30" rx="4" fill="#8b5cf6" opacity="0.1"/>
    <rect x="5" y="20" width="6" height="6" fill="#8b5cf6"/>
    <rect x="13" y="15" width="6" height="11" fill="#8b5cf6"/>
    <rect x="21" y="10" width="6" height="16" fill="#8b5cf6"/>
    <rect x="29" y="5" width="6" height="21" fill="#8b5cf6"/>
  </g>
</svg>